<svg xmlns="http://www.w3.org/2000/svg" width="512" height="512" viewBox="0 0 512 512"><path fill="#008cdb" d="M427.708 268.731a68.141 68.141 0 0 0-29.826 6.837l39.556 51.802-1.576 1.126-48.408-43.451-185.756 33.773-.225-1.805 172.693-39.626-95.017-32.425 1.125-1.351 108.329 27.608c12.824-131.079-179.112-172.49-221.397-47.869-38.121-28.593-92.109 8.103-80.452 53.764-44.174 1.284-77.648 42.979-69.537 86.36h473.614c18.535-44.318-15.16-94.743-63.123-94.743z"/><path fill-rule="evenodd" clip-rule="evenodd" fill="#008cdb" d="M392.528 260.006c0 5.04-.328 10.095-.966 15.103 13.954-8.169 30.539-11.338 46.533-9.004 14.484 2.121 26.061 13.242 40.962 10.199v-1.57l-38.055-11.258 38.275-10.588V251.2l-39.626-1.464 34.22-20.035-.9-1.576-38.496 8.778 27.688-28.368-1.121-1.351-34.904 18.465 19.365-34.449-1.463-1.355-28.705 27.247 9.458-38.051-1.805-.904-20.266 33.549-1.125-39.626-1.575-.225-10.803 37.826-10.812-37.826h-2.251l-.337 26.305c-.057 4.506 7.338 15.675 9.04 20.125 5.076 13.302 7.669 27.506 7.669 41.741z"/></svg>